Coordinates
version=1
nRows=29
nColumns=24
inDegrees=yes

Units are S.I. units (second, meters, Newtons, ...)
Angles are in degrees.

endheader
time	pelvis_tilt	pelvis_list	pelvis_rotation	pelvis_tx	pelvis_ty	pelvis_tz	hip_flexion_r	hip_adduction_r	hip_rotation_r	knee_angle_r	ankle_angle_r	subtalar_angle_r	mtp_angle_r	hip_flexion_l	hip_adduction_l	hip_rotation_l	knee_angle_l	ankle_angle_l	subtalar_angle_l	mtp_angle_l	lumbar_extension	lumbar_bending	lumbar_rotation
      7.28000000	     -2.71829948	      1.03479965	     -1.34136146	      1.36493307	      0.67469465	      0.20141561	     14.51946612	      3.99192153	     10.73031654	    -11.07554024	      4.47577209	    -21.26379608	      0.00000000	     11.78231068	      2.05189702	     -8.80910412	    -58.52714915	     -4.97062730	    -18.35892949	      0.00000000	    -17.91558577	     -1.00035473	     -5.50019905
      7.29000000	     -2.79754563	      1.12853391	     -2.03827452	      1.37245649	      0.67547884	      0.20263997	     13.84518578	      4.05679266	     11.05639502	    -10.90707542	      5.33074706	    -20.54555239	      0.00000000	     14.30421221	      1.93532799	     -8.95482886	    -60.53849726	     -3.57951800	    -18.02483942	      0.00000000	    -18.24977668	     -1.33663026	     -4.99581757
      7.30000000	     -2.86839648	      1.31417655	     -2.59515032	      1.37997831	      0.67629264	      0.20374438	     13.14284524	      4.00327138	     11.49840663	    -10.71431105	      6.11881873	    -20.16126269	      0.00000000	     16.73939520	      2.01080529	     -8.80123832	    -61.91263434	     -2.20409447	    -17.56411017	      0.00000000	    -18.56289283	     -1.74269846	     -4.63387360
      7.31000000	     -2.92793096	      1.59201443	     -2.94932081	      1.38749240	      0.67711708	      0.20467154	     12.45776906	      3.81217533	     11.82007384	    -10.57635063	      6.77073060	    -19.89240181	      0.00000000	     19.07400135	      2.29421984	     -8.33761411	    -62.68172926	     -0.68509711	    -16.87489359	      0.00000000	    -18.86675573	     -2.19730948	     -4.61614503
      7.32000000	     -2.95518049	      1.86920244	     -3.22722756	      1.39502526	      0.67793035	      0.20553071	     11.74690181	      3.61153405	     12.18906758	    -10.46794180	      7.30854606	    -19.75524949	      0.00000000	     21.24213005	      2.63971042	     -7.71495279	    -62.85222714	      0.74374255	    -16.28928418	      0.00000000	    -19.17569655	     -2.62419172	     -4.68394166
      7.33000000	     -2.97891930	      2.21128298	     -3.44221209	      1.40260416	      0.67870314	      0.20630964	     11.04047167	      3.32750743	     12.58756410	    -10.38083108	      7.79961926	    -19.79702943	      0.00000000	     23.23377008	      3.11185662	     -6.97971813	    -62.39514395	      1.94052383	    -15.93954384	      0.00000000	    -19.43987962	     -3.10028617	     -4.80108433
      7.34000000	     -2.95978928	      2.56962030	     -3.63494683	      1.41023907	      0.67944805	      0.20706509	     10.29748103	      3.01162140	     12.96530656	    -10.31541843	      8.28206194	    -19.91666892	      0.00000000	     24.96638519	      3.62631146	     -6.18725713	    -61.30994019	      2.83885144	    -16.01886800	      0.00000000	    -19.70996916	     -3.60231981	     -4.92164598
      7.35000000	     -2.94696208	      2.84939798	     -3.87349778	      1.41795606	      0.68008153	      0.20781886	      9.55074902	      2.76497172	     13.30498175	    -10.23426757	      8.71131526	    -19.99661507	      0.00000000	     26.46798351	      4.01446088	     -5.43373107	    -59.65661469	      3.69780900	    -16.39890210	      0.00000000	    -19.92478072	     -4.00623569	     -4.94259673
      7.36000000	     -2.92523607	      3.29121224	     -4.22552095	      1.42574429	      0.68067439	      0.20863728	      8.83401870	      2.34203800	     13.66179497	    -10.19499797	      9.23517364	    -19.92674136	      0.00000000	     27.66936870	      4.50120091	     -4.83295969	    -57.28907397	      3.94147601	    -17.36525162	      0.00000000	    -20.10012803	     -4.65982415	     -4.81169050
      7.37000000	     -2.84517494	      3.62686427	     -4.64316351	      1.43363850	      0.68118754	      0.20947272	      8.04113203	      2.01230410	     14.00476237	    -10.14192168	      9.84040706	    -19.79803619	      0.00000000	     28.51376523	      4.80626611	     -4.28960530	    -54.33219463	      4.00647928	    -18.76771358	      0.00000000	    -20.30601067	     -5.20356858	     -4.56674311
      7.38000000	     -2.73459920	      3.78281641	     -5.07917596	      1.44170499	      0.68159089	      0.21029303	      7.16574813	      1.83015289	     14.08230177	    -10.00559053	     10.44561306	    -19.40012471	      0.00000000	     29.00703751	      4.88342067	     -3.72767541	    -50.78944302	      3.61020946	    -20.90392478	      0.00000000	    -20.49076672	     -5.56045959	     -4.23517452
      7.39000000	     -2.60408435	      3.87653313	     -5.62122870	      1.44994081	      0.68184333	      0.21121501	      6.24098987	      1.70653277	     14.24857230	     -9.84560108	     11.12485149	    -18.98732898	      0.00000000	     29.15767166	      4.75942797	     -3.35106444	    -46.69030712	      3.27824757	    -22.71736959	      0.00000000	    -20.63273008	     -5.89541829	     -3.74120136
      7.40000000	     -2.44970782	      3.81239880	     -6.22622541	      1.45836069	      0.68191037	      0.21220597	      5.24757792	      1.73373245	     14.44788333	     -9.66423042	     11.78616894	    -18.54839672	      0.00000000	     28.96617428	      4.38138288	     -3.08013606	    -42.10562005	      3.07941015	    -24.05635906	      0.00000000	    -20.74430122	     -6.08423749	     -3.12799991
      7.41000000	     -2.29795183	      3.55469673	     -6.88033537	      1.46702061	      0.68173278	      0.21327053	      4.17772764	      1.94345571	     14.67032292	     -9.41195767	     12.41356387	    -18.13705711	      0.00000000	     28.48437050	      3.71731858	     -2.96306469	    -37.14143238	      3.18930217	    -24.55763279	      0.00000000	    -20.77412725	     -6.08411283	     -2.40796780
      7.42000000	     -2.14636014	      3.09510709	     -7.58452316	      1.47592696	      0.68129886	      0.21437492	      3.02647861	      2.33922626	     14.97315055	     -9.11124976	     13.01811688	    -17.77269139	      0.00000000	     27.73940619	      2.80073384	     -2.99618799	    -31.88852649	      3.49545261	    -24.18176247	      0.00000000	    -20.73275347	     -5.86463512	     -1.55464480
      7.43000000	     -1.83311804	      2.48657375	     -8.24544605	      1.48517163	      0.68077786	      0.21541221	      1.61616688	      2.81145649	     15.06605681	     -8.75174832	     13.71380003	    -17.09879162	      0.00000000	     26.57951398	      1.80431964	     -3.03205315	    -26.43686400	      4.28304786	    -22.61477549	      0.00000000	    -20.81912405	     -5.48376046	     -0.78427428
      7.44000000	     -1.56119531	      1.68009776	     -8.94915782	      1.49463758	      0.67996256	      0.21646575	      0.18661481	      3.46648079	     15.27131835	     -8.41229833	     14.47789838	    -16.38781390	      0.00000000	     25.34062947	      0.58953995	     -3.29167930	    -21.05760089	      5.34906479	    -19.79534583	      0.00000000	    -20.80857432	     -4.87373541	      0.09253017
      7.45000000	     -1.12879213	      0.87746440	     -9.66024723	      1.50439407	      0.67909921	      0.21743627	     -1.48013060	      4.03198579	     15.53873278	     -8.02369473	     15.15023166	    -15.85434545	      0.00000000	     23.77383358	     -0.49679530	     -3.44338087	    -15.67090368	      5.93528959	    -16.95924924	      0.00000000	    -20.92427459	     -4.28612001	      0.94164075
      7.46000000	     -0.73371142	     -0.02069766	    -10.29019296	      1.51435592	      0.67802056	      0.21826953	     -3.15494117	      4.65479404	     15.70213509	     -7.65094280	     15.87888637	    -15.14159804	      0.00000000	     22.24117773	     -1.59800178	     -3.44294019	    -10.69901743	      6.68503377	    -13.68461329	      0.00000000	    -20.96686038	     -3.54298891	      1.71539764
      7.47000000	     -0.53757574	     -0.92342629	    -10.86587834	      1.52439256	      0.67666208	      0.21899686	     -4.56575859	      5.29649909	     15.68511354	     -7.44254560	     16.80339324	    -14.11201202	      0.00000000	     21.02019380	     -2.69254076	     -3.45510880	     -6.37273618	      7.41282282	    -10.36038206	      0.00000000	    -20.76430767	     -2.72588404	      2.42023098
      7.48000000	     -0.14530002	     -1.66667692	    -11.29874502	      1.53462097	      0.67544044	      0.21953925	     -6.23642303	      5.70473665	     15.73280547	     -7.12153958	     17.36928186	    -13.61045274	      0.00000000	     19.56991526	     -3.47157491	     -2.72810776	     -2.45627601	      7.42199624	     -8.80148559	      0.00000000	    -20.74868141	     -2.08500075	      2.91961246
      7.49000000	      0.19574922	     -2.26315215	    -11.59998336	      1.54487528	      0.67422371	      0.21991395	     -7.72139685	      5.97545597	     15.29011559	     -7.00684959	     18.28894249	    -12.45384826	      0.00000000	     18.41350211	     -4.06890518	     -2.21533069	      0.55323007	      7.37171072	     -7.71632883	      0.00000000	    -20.66714328	     -1.55699279	      3.23165054
      7.50000000	      0.56328833	     -2.65596800	    -11.72365244	      1.55520573	      0.67308986	      0.22011930	     -9.23381339	      6.05609584	     14.97212861	     -6.82008708	     18.72799748	    -12.06242928	      0.00000000	     17.51612552	     -4.36951922	     -1.94326209	      2.56640414	      7.36803344	     -7.17881564	      0.00000000	    -20.56630829	     -1.23148171	      3.35116587
      7.51000000	      0.90738680	     -2.90596014	    -11.68285127	      1.56554913	      0.67203223	      0.22009241	    -10.61971850	      6.03437957	     14.43231620	     -6.76277177	     19.11646631	    -11.66585745	      0.00000000	     16.96263254	     -4.41907282	     -2.07903351	      3.53034094	      7.32269994	     -7.07872225	      0.00000000	    -20.43625278	     -1.00584584	      3.26542170
      7.52000000	      1.20669027	     -2.96785674	    -11.53216589	      1.57600694	      0.67101069	      0.21986581	    -11.81931587	      5.85363633	     13.47925165	     -6.90159305	     19.80476008	    -10.70926216	      0.00000000	     16.71724480	     -4.19538483	     -2.50149721	      3.54329990	      7.26767357	     -7.39750767	      0.00000000	    -20.20156128	     -0.95568313	      3.14034834
      7.53000000	      1.33697418	     -2.91186720	    -11.26665863	      1.58655534	      0.66988935	      0.21946131	    -12.75555703	      5.62826857	     12.48775615	     -7.16639960	     20.25340049	    -10.05058563	      0.00000000	     16.88806246	     -3.81852132	     -3.23124888	      2.70495686	      7.02465001	     -7.88869123	      0.00000000	    -19.73578493	     -0.97691804	      2.94765519
      7.54000000	      1.38046652	     -2.83606138	    -10.99700646	      1.59719476	      0.66874285	      0.21901239	    -13.57906160	      5.42175613	     11.84960577	     -7.48795895	     20.20137175	    -10.04699518	      0.00000000	     17.25350044	     -3.44619106	     -4.12750207	      1.28019393	      6.51330184	     -8.53568540	      0.00000000	    -19.15543825	     -1.02433096	      2.86350805
      7.55000000	      1.25322627	     -2.70284876	    -10.78025397	      1.60796272	      0.66749940	      0.21850196	    -14.06368913	      5.17941500	     11.10229502	     -8.12739596	     20.47170331	     -9.58751648	      0.00000000	     17.78971890	     -3.08359976	     -4.89327990	     -0.41729789	      5.52411661	     -9.58821693	      0.00000000	    -18.33598123	     -1.10769259	      2.91458613
      7.56000000	      1.15635389	     -2.57308300	    -10.56877295	      1.61881284	      0.66639726	      0.21791719	    -14.48543463	      4.92257712	     10.33365458	     -8.94736490	     20.51889842	     -9.05364208	      0.00000000	     18.16300107	     -2.73546949	     -5.10930545	     -2.03525235	      3.64600589	    -11.30692801	      0.00000000	    -17.55627549	     -1.20566432	      3.04815261
